<?xml version="1.0" encoding="UTF-8" standalone="no"?>
<!-- Created with Inkscape (http://www.inkscape.org/) -->

<svg
   xmlns:dc="http://purl.org/dc/elements/1.1/"
   xmlns:cc="http://creativecommons.org/ns#"
   xmlns:rdf="http://www.w3.org/1999/02/22-rdf-syntax-ns#"
   xmlns:svg="http://www.w3.org/2000/svg"
   xmlns="http://www.w3.org/2000/svg"
   xmlns:sodipodi="http://sodipodi.sourceforge.net/DTD/sodipodi-0.dtd"
   xmlns:inkscape="http://www.inkscape.org/namespaces/inkscape"
   width="155.39529mm"
   height="92.107788mm"
   viewBox="0 0 550.61325 326.36618"
   id="svg2"
   version="1.1"
   inkscape:version="0.91 r13725"
   sodipodi:docname="chatette-logo.svg">
  <defs
     id="defs4" />
  <sodipodi:namedview
     id="base"
     pagecolor="#ffffff"
     bordercolor="#666666"
     borderopacity="1.0"
     inkscape:pageopacity="0.0"
     inkscape:pageshadow="2"
     inkscape:zoom="0.87780678"
     inkscape:cx="458.61294"
     inkscape:cy="178.2255"
     inkscape:document-units="px"
     inkscape:current-layer="layer1"
     showgrid="false"
     showborder="false"
     inkscape:snap-smooth-nodes="false"
     inkscape:object-nodes="true"
     inkscape:object-paths="false"
     inkscape:window-width="1920"
     inkscape:window-height="1056"
     inkscape:window-x="0"
     inkscape:window-y="24"
     inkscape:window-maximized="1"
     fit-margin-top="0"
     fit-margin-left="0"
     fit-margin-right="0"
     fit-margin-bottom="0" />
  <metadata
     id="metadata7">
    <rdf:RDF>
      <cc:Work
         rdf:about="">
        <dc:format>image/svg+xml</dc:format>
        <dc:type
           rdf:resource="http://purl.org/dc/dcmitype/StillImage" />
        <dc:title></dc:title>
      </cc:Work>
    </rdf:RDF>
  </metadata>
  <g
     inkscape:label="Calque 1"
     inkscape:groupmode="layer"
     id="layer1"
     transform="translate(72.359375,-397.59766)">
    <path
       style="color:#000000;font-style:normal;font-variant:normal;font-weight:normal;font-stretch:normal;font-size:medium;line-height:normal;font-family:sans-serif;text-indent:0;text-align:start;text-decoration:none;text-decoration-line:none;text-decoration-style:solid;text-decoration-color:#000000;letter-spacing:normal;word-spacing:normal;text-transform:none;direction:ltr;block-progression:tb;writing-mode:lr-tb;baseline-shift:baseline;text-anchor:start;white-space:normal;clip-rule:nonzero;display:inline;overflow:visible;visibility:visible;opacity:1;isolation:auto;mix-blend-mode:normal;color-interpolation:sRGB;color-interpolation-filters:linearRGB;solid-color:#000000;solid-opacity:1;fill:#b929e7;fill-opacity:1;fill-rule:evenodd;stroke:none;stroke-width:40;stroke-linecap:butt;stroke-linejoin:miter;stroke-miterlimit:4;stroke-dasharray:none;stroke-dashoffset:0;stroke-opacity:1;color-rendering:auto;image-rendering:auto;shape-rendering:auto;text-rendering:auto;enable-background:accumulate"
       d="m 68.068359,397.59766 c -134.032365,0 -140.427734,5.01162 -140.427734,131.48632 0,103.16743 2.909263,131.07476 61.491603,138.57921 0.711056,12.55531 -1.634158,43.55565 -4.847312,56.30064 20.6814684,-6.18741 75.5444,-40.27402 83.783443,-53.56539 37.388811,0 68.091111,-18.12445 92.384761,-42.15625 16.32017,-16.14425 30.38463,-35.11656 43.6836,-54.61328 l 23.9043,-35.91016 c 17.38263,-26.44079 34.52932,-51.54676 52.7207,-69.51563 19.86042,-19.61747 39.39586,-30.60546 64.41211,-30.60546 30.36457,0 53.3656,6.32916 68.26562,19.24804 14.90002,12.91889 24.81446,33.80302 24.81446,72.23828 0,39.81078 -7.19701,64.60185 -20.05469,78.88282 -12.85769,14.28097 -34.17977,22.43164 -73.02539,22.43164 -26.79083,0 -47.61429,-11.25239 -68.2461,-30.86914 -12.27692,-11.67293 -23.97593,-26.35123 -35.45703,-42.40235 -0.001,0.009 -6.2e-4,0.0167 -0.002,0.0254 -9.04911,12.42932 -15.58006,24.01804 -23.19922,35.97071 9.58435,12.61043 19.79299,24.64789 31.0957,35.39453 25.27694,24.03334 57.15953,41.88086 95.8086,41.88086 44.75161,0 79.96885,-10.36288 102.75195,-35.66797 22.7831,-25.30509 30.32813,-61.17173 30.32813,-105.64649 0,-45.85026 -13.52299,-80.70839 -38.61133,-102.46093 -25.08834,-21.75255 -58.62639,-29.02539 -94.46875,-29.02539 -37.44081,0 -68.19125,18.11386 -92.52149,42.14648 -18.33168,18.10744 -33.91537,39.69979 -48.63086,61.69336 l -23.98046,36.35352 c -15.69244,23.63488 -31.28438,45.75644 -47.71875,62.01367 -19.83207,19.61829 -37.749146,30.73615 -76.927543,30.87855 -6.71278,8.97122 -27.920424,34.4331 -34.319438,36.91088 1.101584,-4.66441 0.544685,-30.28317 -0.998174,-37.0234 -59.089569,-0.58139 -52.293076,-10.29425 -52.43649,-101.48669 -0.158816,-100.98606 -12.682771,-90.58641 100.427734,-91.48632 22.689757,-0.18052 40.878711,10.66654 60.021481,30.32812 8.77451,9.01231 17.38977,19.83351 25.99805,31.72461 3.83171,5.29296 7.66392,10.82335 11.50586,16.47461 -0.004,-0.0127 -0.006,-0.0244 -0.01,-0.0371 7.73208,-11.76722 14.76879,-24.40957 24.04102,-35.66406 -2.66404,-3.75194 -5.35132,-7.47711 -8.09961,-11.12695 -7.80203,-10.36146 -15.98383,-20.24557 -24.77539,-29.2754 -23.35553,-23.98851 -52.75311,-42.42382 -88.681641,-42.42382 z"
       id="path4136"
       inkscape:connector-curvature="0"
       sodipodi:nodetypes="cscccsccssssssscccsssssssccscccsssscccsssc" />
    <ellipse
       style="color:#000000;clip-rule:nonzero;display:inline;overflow:visible;visibility:visible;opacity:1;isolation:auto;mix-blend-mode:normal;color-interpolation:sRGB;color-interpolation-filters:linearRGB;solid-color:#000000;solid-opacity:1;fill:#b929e7;fill-opacity:1;fill-rule:nonzero;stroke:none;stroke-width:40;stroke-linecap:butt;stroke-linejoin:round;stroke-miterlimit:4;stroke-dasharray:none;stroke-dashoffset:0;stroke-opacity:1;color-rendering:auto;image-rendering:auto;shape-rendering:auto;text-rendering:auto;enable-background:accumulate"
       id="path4185"
       cx="11.984346"
       cy="536.21368"
       rx="20.292433"
       ry="19.886581" />
    <ellipse
       ry="19.886581"
       rx="20.292433"
       cy="536.21368"
       cx="67.426796"
       id="ellipse4187"
       style="color:#000000;clip-rule:nonzero;display:inline;overflow:visible;visibility:visible;opacity:1;isolation:auto;mix-blend-mode:normal;color-interpolation:sRGB;color-interpolation-filters:linearRGB;solid-color:#000000;solid-opacity:1;fill:#b929e7;fill-opacity:1;fill-rule:nonzero;stroke:none;stroke-width:40;stroke-linecap:butt;stroke-linejoin:round;stroke-miterlimit:4;stroke-dasharray:none;stroke-dashoffset:0;stroke-opacity:1;color-rendering:auto;image-rendering:auto;shape-rendering:auto;text-rendering:auto;enable-background:accumulate" />
    <ellipse
       style="color:#000000;clip-rule:nonzero;display:inline;overflow:visible;visibility:visible;opacity:1;isolation:auto;mix-blend-mode:normal;color-interpolation:sRGB;color-interpolation-filters:linearRGB;solid-color:#000000;solid-opacity:1;fill:#b929e7;fill-opacity:1;fill-rule:nonzero;stroke:none;stroke-width:40;stroke-linecap:butt;stroke-linejoin:round;stroke-miterlimit:4;stroke-dasharray:none;stroke-dashoffset:0;stroke-opacity:1;color-rendering:auto;image-rendering:auto;shape-rendering:auto;text-rendering:auto;enable-background:accumulate"
       id="ellipse4189"
       cx="122.86926"
       cy="536.21368"
       rx="20.292433"
       ry="19.886581" />
  </g>
</svg>
